<?xml version="1.0" encoding="utf-8"?>
<!-- Generator: Adobe Illustrator 16.0.0, SVG Export Plug-In . SVG Version: 6.00 Build 0)  -->
<!DOCTYPE svg PUBLIC "-//W3C//DTD SVG 1.1//EN" "http://www.w3.org/Graphics/SVG/1.1/DTD/svg11.dtd">
<svg version="1.1" id="Layer_1" focusable="false" xmlns="http://www.w3.org/2000/svg" xmlns:xlink="http://www.w3.org/1999/xlink"
	 x="0px" y="0px" width="595.279px" height="841.89px" viewBox="0 0 595.279 841.89" enable-background="new 0 0 595.279 841.89"
	 xml:space="preserve">
<path d="M297.64,160.51C133.24,160.51,0,268.753,0,402.343c0,55.342,23.137,106.034,61.504,146.844
	c-17.323,45.809-53.365,84.641-53.947,85.105c-7.673,8.139-9.766,19.998-5.348,30.229c4.418,10.232,14.533,16.859,25.694,16.859
	c71.504,0,127.893-29.881,161.726-53.832c33.601,10.58,69.876,16.627,108.011,16.627c164.399,0,297.64-108.244,297.64-241.833
	C595.28,268.753,462.039,160.51,297.64,160.51z M297.64,588.367c-31.043,0-61.737-4.766-91.152-14.066l-26.392-8.371l-22.672,16.043
	c-16.626,11.744-39.414,24.881-66.854,33.719c8.488-14.068,16.742-29.881,23.138-46.74l12.324-32.67l-23.951-25.346
	c-21.044-22.439-46.273-59.529-46.273-108.592c0-102.546,108.476-186.025,241.832-186.025s241.833,83.479,241.833,186.025
	C539.473,504.888,430.996,588.367,297.64,588.367z"/>
</svg>
