<?xml version="1.0" encoding="utf-8"?>
<!-- Generator: Adobe Illustrator 16.0.0, SVG Export Plug-In . SVG Version: 6.00 Build 0)  -->
<!DOCTYPE svg PUBLIC "-//W3C//DTD SVG 1.1//EN" "http://www.w3.org/Graphics/SVG/1.1/DTD/svg11.dtd">
<svg version="1.1" id="Layer_1" focusable="false" xmlns="http://www.w3.org/2000/svg" xmlns:xlink="http://www.w3.org/1999/xlink"
	 x="0px" y="0px" width="595.279px" height="841.89px" viewBox="0 0 595.279 841.89" enable-background="new 0 0 595.279 841.89"
	 xml:space="preserve">
<path fill="#FF003B" d="M532.962,198.064c-67.201-56.505-171.026-48.018-235.321,17.439
	c-64.295-65.458-168.12-74.061-235.321-17.439c-87.432,73.596-74.644,193.582-12.324,257.18l203.93,207.768
	c11.628,11.857,27.206,18.484,43.717,18.484c16.626,0,32.089-6.51,43.716-18.369l203.93-207.768
	C607.488,391.762,620.51,271.776,532.962,198.064z M505.523,416.062L301.594,623.83c-2.79,2.789-5.115,2.789-7.906,0L89.757,416.062
	C47.321,372.811,38.716,290.96,98.244,240.85c45.229-38.019,114.987-32.322,158.703,12.208l40.692,41.507l40.693-41.507
	c43.947-44.763,113.706-50.227,158.701-12.324C556.448,290.844,547.612,373.16,505.523,416.062z"/>
<path fill="#FF003B" d="M183.14,193.445l114.5,56l127.5-62l83,8l51,100v101l-261.5,257l-281.5-306l19-106c0,0,50-35,53-35
	s65-11,65-11L183.14,193.445z"/>
</svg>
