<?xml version="1.0" encoding="utf-8"?>
<!-- Generator: Adobe Illustrator 16.0.0, SVG Export Plug-In . SVG Version: 6.00 Build 0)  -->
<!DOCTYPE svg PUBLIC "-//W3C//DTD SVG 1.1//EN" "http://www.w3.org/Graphics/SVG/1.1/DTD/svg11.dtd">
<svg version="1.1" id="Layer_1" focusable="false" xmlns="http://www.w3.org/2000/svg" xmlns:xlink="http://www.w3.org/1999/xlink"
	 x="0px" y="0px" width="595.279px" height="841.89px" viewBox="0 0 595.279 841.89" enable-background="new 0 0 595.279 841.89"
	 xml:space="preserve">
<path d="M587.51,339.764L438.687,480.3c-15.687,14.814-41.833,3.832-41.833-18.031v-74.373
	c-149.415,1.003-212.447,36.289-170.291,177.089c4.634,15.475-13.275,27.455-25.843,17.91
	c-40.271-30.592-76.703-89.104-76.703-148.166c0-148.754,121.535-178.273,272.837-179.113v-74.425
	c0-21.883,26.164-32.832,41.833-18.032L587.51,303.7C597.865,313.479,597.874,329.976,587.51,339.764z M396.854,548.195v71.178
	H66.142V288.661h52.621c3.374-0.002,6.602-1.38,8.938-3.817c15.453-16.089,33.315-28.823,52.721-38.937
	c11.503-5.995,7.241-23.388-5.73-23.388H49.607C22.209,222.519,0,244.728,0,272.125v363.783c0,27.396,22.209,49.605,49.606,49.605
	h363.782c27.397,0,49.606-22.209,49.606-49.605v-91.779c0-8.564-8.472-14.537-16.547-11.68c-11.322,4.004-23.446,5.201-35.333,3.49
	C403.602,534.857,396.854,540.603,396.854,548.195L396.854,548.195z"/>
</svg>
